g LeftEyeWhiteLine
v 0.0439929 1.457703 0.07848553
v 0.0447447 1.457132 0.07832375
v 0.04289889 1.456362 0.07912932
v 0.04293001 1.457925 0.07874057
v 0.04184083 1.457737 0.07902053
v 0.04101718 1.457191 0.07925037
v 0.0406798 1.456432 0.07936852
v 0.04093058 1.455695 0.07905568
v 0.04169081 1.455146 0.07868326
v 0.0427568 1.454933 0.07835115
v 0.0438429 1.455112 0.07814828
v 0.0446581 1.455636 0.07812907
v 0.04498395 1.456363 0.07829855
v 0.04688975 1.457921 0.07777894
v 0.04787554 1.457657 0.07753968
v 0.04695827 1.456855 0.07810938
v 0.04589316 1.4576 0.07801512
v 0.04543815 1.45689 0.07811014
v 0.04581674 1.456164 0.0779937
v 0.04676337 1.455867 0.07759141
v 0.04778049 1.456129 0.0774684
v 0.04826857 1.45689 0.07743657
v 0.02879523 1.487945 0.08579886
v 0.02901618 1.487589 0.08548708
v 0.02712339 1.486259 0.08556984
v 0.03140524 1.488786 0.08535586
v 0.03117396 1.489437 0.08569217
v 0.0339166 1.489701 0.08502386
v 0.03380457 1.49038 0.08534953
v 0.03673744 1.490451 0.0845258
v 0.03669169 1.491104 0.08476577
v 0.043419 1.490755 0.08282127
v 0.03957315 1.490897 0.08385698
v 0.04354341 1.491252 0.08301729
v 0.03961147 1.491516 0.0840904
v 0.04779935 1.490114 0.08181614
v 0.03669169 1.491104 0.08476577
v 0.03673744 1.490451 0.0845258
vt 0.147497 0.556271
vt 0.144165 0.558952
vt 0.152046 0.562545
vt 0.152046 0.555288
vt 0.156595 0.556271
vt 0.159927 0.558952
vt 0.161147 0.562602
vt 0.159927 0.566238
vt 0.156595 0.568888
vt 0.152046 0.569855
vt 0.147497 0.568888
vt 0.144165 0.566238
vt 0.142944 0.562602
vt 0.151684 0.57042
vt 0.158621 0.568349
vt 0.151921 0.562639
vt 0.144885 0.567932
vt 0.142207 0.562344
vt 0.14522 0.556928
vt 0.152157 0.554858
vt 0.158956 0.557346
vt 0.161634 0.562934
vt 0.372668 0.5784693
vt 0.372668 0.5780519
vt 0.3682128 0.5781563
vt 0.3798859 0.5780519
vt 0.3798859 0.5784693
vt 0.3858834 0.5780519
vt 0.3858834 0.5784693
vt 0.3926957 0.5775279
vt 0.3926471 0.5784693
vt 0.3858834 0.5775279
vt 0.3889898 0.5775279
vt 0.3858834 0.5771105
vt 0.3889898 0.5771105
vt 0.3807575 0.5773192
vt 0.3926958 0.5771105
vt 0.3926957 0.5775279
vn 0.308894 0.1947785 0.9309381
vn 0.3542793 0.1210206 0.9272757
vn 0.2341802 -0.135892 0.9626489
vn 0.2396553 0.229755 0.9432805
vn 0.1697278 0.2067226 0.9635653
vn 0.123861 0.1376736 0.9827026
vn 0.1019698 -0.1354019 0.9855295
vn 0.09969351 -0.394942 0.9132809
vn 0.1387038 -0.459679 0.8771867
vn 0.2049296 -0.4837473 0.8508774
vn 0.2761509 -0.4556273 0.8462532
vn 0.3280452 -0.3902282 0.8602955
vn 0.3666644 -0.139027 0.9199069
vn 0.2164813 0.301784 0.9284731
vn 0.393311 0.1890972 0.8997492
vn 0.2389873 -0.07990914 0.9677291
vn 0.05150998 0.1976217 0.9789241
vn 9.116137E-05 -0.01812931 0.9998357
vn 0.08094244 -0.2930159 0.9526752
vn 0.2177075 -0.4864263 0.8461636
vn 0.3625157 -0.351574 0.8631212
vn 0.4571647 -0.06276721 0.8871644
vn 0.3293626 -0.4819761 0.8119233
vn 0.3339919 -0.4945273 0.8024288
vn 0.3669516 -0.4727297 0.8011699
vn 0.2633952 -0.3772201 0.8878784
vn 0.2608194 -0.3696386 0.8918187
vn 0.2557537 -0.3821263 0.8880144
vn 0.256372 -0.3781303 0.8895453
vn 0.2637737 -0.3213547 0.9094804
vn 0.2636882 -0.3189743 0.9103428
vn 0.1882554 -0.4009019 0.8965698
vn 0.2415426 -0.3548272 0.9031915
vn 0.1875902 -0.3981082 0.8979531
vn 0.240744 -0.3555002 0.90314
vn 0.1501979 -0.3952585 0.9062071
vn 0.2636882 -0.3189743 0.9103428
vn 0.2637737 -0.3213547 0.9094804
g LeftEyeWhiteLine_0
f 3/3/3 2/2/2 1/1/1
f 3/3/3 1/1/1 4/4/4
f 3/3/3 4/4/4 5/5/5
f 3/3/3 5/5/5 6/6/6
f 3/3/3 6/6/6 7/7/7
f 3/3/3 7/7/7 8/8/8
f 3/3/3 8/8/8 9/9/9
f 3/3/3 9/9/9 10/10/10
f 3/3/3 10/10/10 11/11/11
f 3/3/3 11/11/11 12/12/12
f 3/3/3 12/12/12 13/13/13
f 3/3/3 13/13/13 2/2/2
f 16/16/16 15/15/15 14/14/14
f 16/16/16 14/14/14 17/17/17
f 16/16/16 17/17/17 18/18/18
f 16/16/16 18/18/18 19/19/19
f 16/16/16 19/19/19 20/20/20
f 16/16/16 20/20/20 21/21/21
f 16/16/16 21/21/21 22/22/22
f 16/16/16 22/22/22 15/15/15
f 25/25/25 24/24/24 23/23/23
f 26/26/26 23/23/23 24/24/24
f 26/26/26 27/27/27 23/23/23
f 28/28/28 27/27/27 26/26/26
f 28/28/28 29/29/29 27/27/27
f 30/30/30 29/29/29 28/28/28
f 30/30/30 31/31/31 29/29/29
f 34/34/34 33/33/33 32/32/32
f 34/34/34 35/35/35 33/33/33
f 34/34/34 32/32/32 36/36/36
f 33/33/33 35/35/35 37/37/37
f 33/33/33 37/37/37 38/38/38
